<svg width="27" height="23" viewBox="0 0 27 23" fill="none" xmlns="http://www.w3.org/2000/svg">
<path d="M13.375 16.75C15.6532 16.75 17.5 14.9871 17.5 12.8125C17.5 10.6379 15.6532 8.875 13.375 8.875C11.0968 8.875 9.25 10.6379 9.25 12.8125C9.25 14.9871 11.0968 16.75 13.375 16.75Z" stroke="#1B1464" stroke-width="2" stroke-linecap="round" stroke-linejoin="round"/>
<path d="M25.75 4.93753V20.6875C25.75 21.0356 25.6051 21.3694 25.3472 21.6156C25.0894 21.8617 24.7396 22 24.375 22H2.375C2.01033 22 1.66059 21.8617 1.40273 21.6156C1.14487 21.3694 1 21.0356 1 20.6875V4.93753C1 4.58943 1.14487 4.25559 1.40273 4.00945C1.66059 3.76331 2.01033 3.62503 2.375 3.62503H7.87499L8.86499 1.72191C8.9803 1.50346 9.15726 1.32012 9.37592 1.19257C9.59458 1.06502 9.84623 0.998329 10.1025 1.00003H16.6475C16.9037 0.998329 17.1554 1.06502 17.374 1.19257C17.5927 1.32012 17.7697 1.50346 17.885 1.72191L18.875 3.62503H24.375C24.7396 3.62503 25.0894 3.76331 25.3472 4.00945C25.6051 4.25559 25.75 4.58943 25.75 4.93753Z" stroke="#1B1464" stroke-width="2" stroke-linecap="round" stroke-linejoin="round"/>
</svg>
