<svg width="39" height="52" viewBox="0 0 39 52" fill="none" xmlns="http://www.w3.org/2000/svg">
<circle cx="19.5" cy="35.75" r="13.25" fill="white" stroke="black" stroke-width="6"/>
<path d="M29.8837 16.2337C29.8837 22.9775 23.3025 31.0862 20.6212 34.1087C20.02 34.775 18.98 34.775 18.3787 34.1087C15.6975 31.0862 9.11621 22.9775 9.11621 16.2337C9.11621 10.4975 13.7637 5.84998 19.5 5.84998C25.2362 5.84998 29.8837 10.4975 29.8837 16.2337Z" fill="#1B1464" stroke="#1B1464" stroke-width="1.2" stroke-miterlimit="10" stroke-linecap="round" stroke-linejoin="round"/>
<path d="M19.4837 20.3937C21.7812 20.3937 23.6437 18.5312 23.6437 16.2337C23.6437 13.9362 21.7812 12.0737 19.4837 12.0737C17.1862 12.0737 15.3237 13.9362 15.3237 16.2337C15.3237 18.5312 17.1862 20.3937 19.4837 20.3937Z" fill="white"/>
</svg>
