<svg width="37" height="46" viewBox="0 0 37 46" fill="none" xmlns="http://www.w3.org/2000/svg">
<ellipse cx="18.0651" cy="12.2332" rx="10.9223" ry="10.9223" stroke="#BBBBBB" stroke-width="1.5" stroke-linecap="round" stroke-linejoin="round"/>
<path fill-rule="evenodd" clip-rule="evenodd" d="M0.740027 38.3462C0.737093 37.5784 0.908814 36.82 1.2422 36.1283C2.28839 34.0359 5.23866 32.927 7.68675 32.4248C9.45231 32.048 11.2423 31.7963 13.0433 31.6715C16.3777 31.3786 19.7314 31.3786 23.0658 31.6715C24.8666 31.7977 26.6565 32.0494 28.4223 32.4248C30.8704 32.927 33.8207 33.9313 34.8669 36.1283C35.5373 37.5383 35.5373 39.1751 34.8669 40.5851C33.8207 42.7821 30.8704 43.7864 28.4223 44.2677C26.6588 44.6601 24.8682 44.9189 23.0658 45.0419C20.3518 45.2719 17.6252 45.3139 14.9055 45.1674C14.2778 45.1674 13.671 45.1674 13.0433 45.0419C11.2476 44.9204 9.46384 44.6616 7.70768 44.2677C5.23866 43.7864 2.30932 42.7821 1.2422 40.5851C0.910517 39.8854 0.738966 39.1206 0.740027 38.3462Z" stroke="#BBBBBB" stroke-width="1.5" stroke-linecap="round" stroke-linejoin="round"/>
</svg>
